<?xml version="1.0" encoding="UTF-8"?> <svg xmlns="http://www.w3.org/2000/svg" xmlns:xlink="http://www.w3.org/1999/xlink" width="83px" height="80px" viewBox="0 0 83 80"> <title>Combined Shape 6</title> <g id="Logo&amp;ico" stroke="none" stroke-width="1" fill="none" fill-rule="evenodd"> <g id="CRM---возможности-Copy-3" transform="translate(-1097.000000, -2250.000000)" fill="#16192C" fill-rule="nonzero"> <g id="Combined-Shape-6" transform="translate(1097.000000, 2250.000000)"> <path d="M78.6197182,2.4158453e-13 L78.6197182,7.70813765 L76.2270139,7.70813765 L76.2270139,4.01784721 L68.8864284,11.1575538 C69.1836738,11.7356521 69.3524639,12.3893155 69.3524639,13.0818089 C69.3524639,15.4201422 67.4397259,17.3226461 65.0888141,17.3226461 C64.3584165,17.3226461 63.6706213,17.1389694 63.069165,16.8157628 L63.069165,16.8157628 L59.6497895,20.1417612 C62.2960029,28.454743 61.0679824,37.7329941 55.9670238,45.1495047 L55.9670238,45.1495047 L60.2768397,49.7315939 L62.0139842,48.003744 L82.9371475,68.741971 L71.7767556,79.8423273 L50.8539163,59.1041002 L52.6503479,57.3172804 L48.3303268,52.7242351 C43.4354152,56.0352493 37.7399658,57.6928509 32.0438684,57.6928509 C24.6235855,57.6928509 17.2033026,54.8835641 11.5541814,49.2648295 C10.9065589,48.620511 10.2978132,47.9523467 9.72438054,47.2643647 L9.72438054,47.2643647 L7.96439595,49.0790582 C8.32190042,49.6992088 8.52729945,50.4163535 8.52729945,51.1808675 C8.52729945,53.5192007 6.61472347,55.4217046 4.26364972,55.4217046 C1.91257598,55.4217046 4.97379915e-14,53.5192007 4.97379915e-14,51.1808675 C4.97379915e-14,48.8425342 1.91257598,46.9400303 4.26348774,46.9401914 C4.97752474,46.9401914 5.65074112,47.1164566 6.24264021,47.4264513 L6.24264021,47.4264513 L8.25710577,45.3494546 C0.391197678,34.1177856 1.4899529,18.5154168 11.5543433,8.50487561 C22.8524239,-2.73243257 41.235313,-2.73275481 52.5335555,8.50487561 C55.2649738,11.2216795 57.3340289,14.3512727 58.7447703,17.6928996 L58.7447703,17.6928996 L61.3653898,15.1439826 C61.0219782,14.5330159 60.8253264,13.8298887 60.8253264,13.0816478 C60.8253264,10.7433145 62.7380644,8.84081062 65.0889761,8.84081062 C65.8752592,8.84081062 66.6119743,9.05461674 67.245018,9.42535366 L67.245018,9.42535366 L74.4887355,2.3799022 L70.8702785,2.3799022 L70.8702785,2.4158453e-13 L78.6197182,2.4158453e-13 Z M62.0172239,51.3663165 L54.2408944,59.1010389 L71.7740018,76.4795936 L79.5503313,68.7447101 L62.0172239,51.3663165 Z M54.512708,47.0866494 C53.8968349,47.8376293 53.2372254,48.5649246 52.5335555,49.2648295 C51.8052637,49.9890635 51.0473283,50.6657671 50.264123,51.2965516 L50.264123,51.2965516 L54.34327,55.6334162 L58.5842416,51.4151358 Z M32.0437064,2.45578968 C25.2360569,2.45578968 18.4285694,5.03290265 13.2461316,10.1877731 C2.88109395,20.497675 2.88109395,37.2725134 13.2461316,47.5820932 C23.6108452,57.8915118 40.4767297,57.8915118 50.8414433,47.5820932 C61.2064809,37.2723523 61.2064809,20.4973528 50.8414433,10.1877731 C45.6590055,5.03322489 38.851356,2.45578968 32.0437064,2.45578968 Z M4.26364972,49.3197714 C3.23211895,49.3197714 2.39270431,50.1546948 2.39270431,51.1807064 C2.39270431,52.206718 3.23211895,53.0416413 4.26364972,53.0416413 C5.29518049,53.0416413 6.13443315,52.2068791 6.13459514,51.1807064 C6.13459514,50.1546948 5.29534248,49.3197714 4.26364972,49.3197714 Z M32.0438684,7.98816405 C37.6557328,7.98816405 42.9313129,10.1619939 46.899499,14.1087872 C50.8675232,18.0557417 53.0528846,23.303256 53.0528846,28.8849331 C53.0528846,34.4666102 50.8675232,39.7142857 46.899499,43.661079 C42.9313129,47.6080335 37.6555708,49.7817022 32.0438684,49.7817022 C26.4320041,49.7817022 21.156262,47.6078723 17.1880759,43.661079 C8.99689865,35.5134062 8.99689865,22.2562989 17.1880759,14.1087872 C21.156262,10.1618328 26.4321661,7.98816405 32.0438684,7.98816405 Z M50.6601803,28.8852554 L45.556306,33.8495209 C45.8762296,34.4443756 46.0584645,35.1231738 46.0584645,35.8437021 C46.0584645,38.1820353 44.1457265,40.0845392 41.7948148,40.0845392 C39.443741,40.0845392 37.531165,38.1820353 37.531165,35.8437021 C37.531165,35.8159894 37.5327849,35.7884379 37.5332709,35.7608864 L37.5332709,35.7608864 L27.9480368,32.769373 C27.1826501,33.9063963 25.8796297,34.6567317 24.4034457,34.6567317 C23.6894087,34.6567317 23.0161923,34.4804665 22.4242932,34.1704718 L22.4242932,34.1704718 L16.9872125,39.7763168 C17.5512499,40.5467923 18.1818638,41.2837547 18.8801881,41.9783427 C22.3962695,45.4757726 27.0713653,47.4018 32.0438684,47.4018 C37.0163716,47.4018 41.6913053,45.4756114 45.2073868,41.9783427 C48.7234683,38.4810739 50.6601803,33.8311533 50.6601803,28.8852554 L50.6601803,28.8852554 Z M41.7948148,33.9829282 C40.763284,33.9829282 39.9238694,34.8178516 39.9238694,35.8438632 C39.9238694,36.8698748 40.763284,37.7047981 41.7948148,37.7047981 C42.8263455,37.7047981 43.6657602,36.8698748 43.6657602,35.8438632 C43.6657602,34.8176905 42.8263455,33.9829282 41.7948148,33.9829282 Z M32.0437064,10.3682274 C27.0712033,10.3682274 22.3961076,12.2944159 18.8800261,15.7916847 C12.9250741,21.7147748 11.8570963,30.6851259 15.673177,37.7033481 L15.673177,37.7033481 L20.7023755,32.518026 C20.345033,31.8978754 20.139634,31.1805696 20.139634,30.4162167 C20.139634,28.0778835 22.052372,26.1753796 24.4032837,26.1753796 C26.7543575,26.1753796 28.6669334,28.0778835 28.6669334,30.4162167 C28.6669334,30.4439294 28.6653136,30.4714809 28.6648276,30.4990324 L28.6648276,30.4990324 L38.2500617,33.4905458 C39.0154484,32.3535226 40.3184688,31.6031871 41.7946528,31.6031871 C42.5529121,31.6031871 43.2650053,31.801848 43.8826603,32.148578 L43.8826603,32.148578 L50.4040794,25.8054483 C49.7724936,22.0304088 47.9823795,18.5518299 45.2072248,15.7916847 C41.6911433,12.2944159 37.0162096,10.3682274 32.0437064,10.3682274 Z M24.4034457,28.5549595 C23.3717529,28.5549595 22.5323383,29.3898829 22.5323383,30.4158945 C22.5323383,31.4419061 23.3717529,32.2768295 24.4034457,32.2768295 C25.4349765,32.2768295 26.2743911,31.4419061 26.2743911,30.4158945 C26.2743911,29.3898829 25.4349765,28.5551207 24.4034457,28.5549595 Z M65.0889761,11.2208739 C64.0572834,11.2208739 63.2180307,12.0557973 63.2180307,13.0818089 C63.2180307,14.1078205 64.0572834,14.9427439 65.0889761,14.9427439 C66.1205069,14.9427439 66.9599215,14.1078205 66.9599215,13.0818089 C66.9599215,12.0557973 66.1205069,11.2208739 65.0889761,11.2208739 Z" id="Combined-Shape"></path> </g> </g> </g> </svg> 