<?xml version="1.0" encoding="UTF-8"?> <svg xmlns="http://www.w3.org/2000/svg" xmlns:xlink="http://www.w3.org/1999/xlink" width="81px" height="81px" viewBox="0 0 81 81"> <title>Group 3</title> <g id="Logo&amp;ico" stroke="none" stroke-width="1" fill="none" fill-rule="evenodd"> <g id="CRM---возможности-Copy-3" transform="translate(-671.000000, -2235.000000)" fill="#16192C" fill-rule="nonzero"> <g id="Group-3" transform="translate(672.000000, 2236.000000)"> <path d="M73.8985285,-0.2 C75.3895169,-0.2 76.7416645,0.40630446 77.7210051,1.38545913 C78.7002672,2.36453523 79.3067169,3.71633228 79.3067169,5.20719964 C79.3067169,6.69800126 78.7000732,8.04974956 77.7206316,9.02881933 C76.7410328,10.0080462 75.3885834,10.6143993 73.8975396,10.6143993 C72.5946026,10.6143993 71.3987745,10.1506516 70.4651644,9.37969137 C69.6254924,8.68630367 68.9980778,7.74434129 68.6955719,6.66788391 L68.6267796,6.39603361 L58.072038,6.39603361 L50.5430612,15.2920838 C55.0228634,17.3360169 58.8382424,20.5880482 61.5700136,24.6292563 C64.1447765,28.4381964 65.7570017,32.9481217 66.0558061,37.808254 L66.0835838,38.349692 L68.6476925,38.349692 C68.93358,37.1834038 69.5983316,36.1639953 70.503931,35.4309665 C71.431982,34.6797643 72.6127866,34.2292209 73.8975396,34.2292209 C75.3889697,34.2292209 76.7413098,34.8354802 77.7207589,35.8145574 C78.7002182,36.7936449 79.3067169,38.1454918 79.3067169,39.6364205 C79.3067169,41.1272221 78.7000732,42.4789704 77.7206316,43.4580402 C76.7410328,44.4372671 75.3885834,45.0436202 73.8975396,45.0436202 C72.577098,45.0436202 71.3688308,44.5669151 70.4318846,43.776955 C69.5845438,43.0625433 68.9592596,42.0918291 68.6736675,40.9859066 L68.6138452,40.7283488 L66.0783937,40.7283488 C65.836391,45.8161734 64.1562622,50.5331875 61.435877,54.4809258 C58.7561496,58.3696628 55.0669422,61.5118563 50.7486797,63.526684 L50.2663034,63.745895 L57.8624006,72.7205717 L68.6287558,72.7205717 C68.8969655,71.530865 69.55737,70.4878801 70.4670332,69.7366948 C71.4004771,68.9658718 72.596199,68.502206 73.8995173,68.502206 C75.3909473,68.502206 76.7432875,69.1084653 77.7227365,70.0875425 C78.7021959,71.06663 79.3086946,72.4184769 79.3086946,73.9094056 C79.3086946,75.4002073 78.7020509,76.7519556 77.7226093,77.7310253 C76.7430105,78.7102522 75.390561,79.3166053 73.8995173,79.3166053 C72.5965803,79.3166053 71.4007522,78.8528576 70.4671421,78.0818974 C69.6274701,77.3885097 69.0000554,76.4465473 68.6975496,75.3700899 L68.6287572,75.0982396 L57.3128164,75.0982396 C57.0069454,75.0982396 56.7138899,74.9806996 56.4941858,74.7722388 L56.4046943,74.6774095 L47.916186,64.649362 C45.2850751,65.5246383 42.4756508,66.0059113 39.5543473,66.0059113 C36.826887,66.0059113 34.1977262,65.5866691 31.7201061,64.8191399 L31.1915264,64.6493643 L22.7028299,74.6786125 C22.5042179,74.9125795 22.2255195,75.0591383 21.9248992,75.0921223 L21.7948894,75.0992284 L10.4789499,75.0992284 C10.2107403,76.2889351 9.55033575,77.33192 8.64067254,78.0831053 C7.70722864,78.8539283 6.51150682,79.3175941 5.20818848,79.3175941 C3.71681377,79.3175941 2.36477541,78.7113834 1.38558452,77.7323785 C0.406304781,76.7532846 -0.2,75.4013889 -0.2,73.9103945 C-0.2,72.4195271 0.406449796,71.0677301 1.38571182,70.088654 C2.36505243,69.1094993 3.71720005,68.5031948 5.20818848,68.5031948 C6.51112549,68.5031948 7.70695359,68.9669425 8.64056369,69.7379027 C9.48023915,70.4312933 10.1076555,71.3732605 10.4101599,72.4497234 L10.4789518,72.7215751 L21.2423469,72.722541 L28.8394295,63.7468742 C24.3138716,61.7445343 20.4494503,58.5145698 17.6705875,54.4817206 C15.047548,50.6750113 13.3916541,46.1530223 13.0597364,41.2730157 L13.0283232,40.7293376 L10.4919464,40.7293376 C10.2418734,41.9419546 9.58711841,43.0085669 8.67459488,43.7779356 C7.73765047,44.5678942 6.52913517,45.044609 5.20818848,45.044609 C3.71681377,45.044609 2.36477541,44.4383983 1.38558452,43.4593933 C0.406304781,42.4802995 -0.2,41.1284038 -0.2,39.6374094 C-0.2,38.146542 0.406449796,36.7947449 1.38571182,35.8156688 C2.36505243,34.8365142 3.71720005,34.2302097 5.20818848,34.2302097 C6.49281751,34.2302097 7.67326737,34.6806628 8.60115175,35.4317301 C9.43710376,36.1083835 10.0679094,37.0291172 10.3852358,38.0841801 L10.457974,38.3506808 L13.0231505,38.3506808 C13.2320977,33.2835982 14.8671057,28.5794163 17.537052,24.6292503 C20.1710205,20.7323133 23.8123164,17.5692939 28.0853161,15.5156866 L28.5626744,15.2920926 L21.0336901,6.39603361 L10.4789499,6.39603361 C10.2107403,7.58574025 9.55033575,8.6287252 8.64067254,9.37991049 C7.70722864,10.1507335 6.51150682,10.6143993 5.20818848,10.6143993 C3.71681377,10.6143993 2.36477541,10.0081886 1.38558452,9.02918362 C0.406304781,8.05008981 -0.2,6.69819411 -0.2,5.20719964 C-0.2,3.71633228 0.406449796,2.36453523 1.38571182,1.38545913 C2.36505243,0.40630446 3.71720005,-0.2 5.20818848,-0.2 C6.51150682,-0.2 7.70722864,0.26366578 8.64067254,1.03448879 C9.48036165,1.7278906 10.1076647,2.66992644 10.4101584,3.74648856 L10.4789499,4.01836568 L21.5852566,4.01836568 C21.8911276,4.01836568 22.1841831,4.1359057 22.4038985,4.34437981 L22.4933955,4.43921568 L30.8897763,14.3610548 C33.6066488,13.4204212 36.5201599,12.9040277 39.5533585,12.9040277 C42.3834236,12.9040277 45.110069,13.3538611 47.6699566,14.1778382 L48.2159285,14.3601039 L56.612531,4.4389816 C56.811143,4.20501458 57.0898414,4.05845578 57.3904617,4.02547182 L57.5204716,4.01836568 L68.627767,4.01836568 C68.8959767,2.82865904 69.5563812,1.78567409 70.4660444,1.03448879 C71.3994883,0.26366578 72.5952101,-0.2 73.8985285,-0.2 Z M73.8985285,70.8808628 C73.0627037,70.8808628 72.3048464,71.2206963 71.7559222,71.7692846 C71.2070583,72.3178126 70.8670191,73.0751195 70.8670191,73.9103945 C70.8670191,74.7456695 71.2070583,75.5029763 71.7559222,76.0515044 C72.3048464,76.6000927 73.0627037,76.9399262 73.8985285,76.9399262 C74.7343532,76.9399262 75.4922105,76.6000927 76.0411347,76.0515044 C76.5899987,75.5029763 76.9300379,74.7456695 76.9300379,73.9103945 C76.9300379,73.0751195 76.5899987,72.3178126 76.0411347,71.7692846 C75.4922105,71.2206963 74.7343532,70.8808628 73.8985285,70.8808628 Z M5.20818848,70.8798739 C4.37279852,70.8798739 3.61515872,71.2197524 3.06635985,71.7683833 C2.51766819,72.316907 2.17766792,73.0741766 2.17766792,73.9094056 C2.17766792,74.7446347 2.51766819,75.5019043 3.06635985,76.050428 C3.61515872,76.5990589 4.37279852,76.9389374 5.20818848,76.9389374 C6.04401322,76.9389374 6.80187052,76.5991038 7.35079471,76.0505156 C7.89965867,75.5019875 8.23969786,74.7446806 8.23969786,73.9094056 C8.23969786,73.0741306 7.89965867,72.3168238 7.35079471,71.7682957 C6.80187052,71.2197075 6.04401322,70.8798739 5.20818848,70.8798739 Z M39.5533585,15.2816956 C32.8863311,15.2816956 26.8406505,17.9927921 22.4617221,22.3699446 C18.082906,26.7469849 15.3706906,32.7900666 15.3706906,39.4544751 C15.3706906,46.1190772 18.0828159,52.1625627 22.461732,56.5398806 C26.8405072,60.9170576 32.8860323,63.6282434 39.5533585,63.6282434 C46.2206847,63.6282434 52.2662097,60.9170576 56.6449849,56.5398806 C61.023901,52.1625627 63.7360263,46.1190772 63.7360263,39.4544751 C63.7360263,32.7900666 61.0238109,26.7469849 56.6449949,22.3699446 C52.2660665,17.9927921 46.2203859,15.2816956 39.5533585,15.2816956 Z M73.8985285,36.6078776 C73.0627037,36.6078776 72.3048464,36.9477112 71.7559222,37.4962994 C71.2070583,38.0448275 70.8670191,38.8021344 70.8670191,39.6374094 C70.8670191,40.4726844 71.2070583,41.2299912 71.7559222,41.7785193 C72.3048464,42.3271075 73.0627037,42.6669411 73.8985285,42.6669411 C74.7343532,42.6669411 75.4922105,42.3271075 76.0411347,41.7785193 C76.5899987,41.2299912 76.9300379,40.4726844 76.9300379,39.6374094 C76.9300379,38.8021344 76.5899987,38.0448275 76.0411347,37.4962994 C75.4922105,36.9477112 74.7343532,36.6078776 73.8985285,36.6078776 Z M5.20818848,36.6068888 C4.37279852,36.6068888 3.61515872,36.9467673 3.06635985,37.4953982 C2.51766819,38.0439219 2.17766792,38.8011915 2.17766792,39.6364205 C2.17766792,40.4716496 2.51766819,41.2289191 3.06635985,41.7774429 C3.61515872,42.3260737 4.37279852,42.6659522 5.20818848,42.6659522 C6.04401322,42.6659522 6.80187052,42.3261187 7.35079471,41.7775304 C7.89965867,41.2290024 8.23969786,40.4716955 8.23969786,39.6364205 C8.23969786,38.8011455 7.89965867,38.0438387 7.35079471,37.4953106 C6.80187052,36.9467224 6.04401322,36.6068888 5.20818848,36.6068888 Z M73.8985285,2.17766792 C73.0627037,2.17766792 72.3048464,2.51750147 71.7559222,3.06608972 C71.2070583,3.61461778 70.8670191,4.37192465 70.8670191,5.20719964 C70.8670191,6.04247464 71.2070583,6.79978151 71.7559222,7.34830956 C72.3048464,7.89689782 73.0627037,8.23673136 73.8985285,8.23673136 C74.7343532,8.23673136 75.4922105,7.89689782 76.0411347,7.34830956 C76.5899987,6.79978151 76.9300379,6.04247464 76.9300379,5.20719964 C76.9300379,4.37192465 76.5899987,3.61461778 76.0411347,3.06608972 C75.4922105,2.51750147 74.7343532,2.17766792 73.8985285,2.17766792 Z M5.20818848,2.17766792 C4.37272648,2.17766792 3.61502042,2.51735815 3.06620384,3.06583875 C2.51760169,3.61410506 2.17766792,4.37107065 2.17766792,5.20621081 C2.17766792,6.04143988 2.51766819,6.79870942 3.06635985,7.34723313 C3.61515872,7.89586402 4.37279852,8.23574253 5.20818848,8.23574253 C6.04408529,8.23574253 6.80200886,7.89609723 7.35095076,7.34765926 C7.89972517,6.79938862 8.23969786,6.04238572 8.23969786,5.20719964 C8.23969786,4.37192465 7.89965867,3.61461778 7.35079471,3.06608972 C6.80187052,2.51750147 6.04401322,2.17766792 5.20818848,2.17766792 Z" id="Shape" stroke="#616474" stroke-width="0.4"></path> <path d="M43.07175,27 L30.685381,27 C29.7545668,27 29,27.7518029 29,28.6792074 C29,29.606612 29.7543073,30.3584148 30.685381,30.3584148 L32.7159886,30.3584148 L32.7159886,39.8678028 L30.685381,39.8678028 C29.7545668,39.8678028 29,40.6196057 29,41.5470102 C29,42.4744148 29.7543073,43.225959 30.685381,43.225959 L32.7159886,43.225959 L32.7159886,45.1495606 L30.685381,45.1495606 C29.7545668,45.1495606 29,45.9013634 29,46.8285093 C29,47.7561725 29.7543073,48.5077168 30.685381,48.5077168 L32.7159886,48.5077168 L32.7159886,52.2985411 C32.7159886,53.225687 33.4702959,53.9777485 34.4013696,53.9777485 C35.3321837,53.9777485 36.0867505,53.225687 36.0867505,52.2985411 L36.0867505,48.5077168 L43.527553,48.5077168 C44.4583672,48.5077168 45.212934,47.7561725 45.212934,46.8285093 C45.212934,45.9013634 44.4583672,45.1495606 43.527553,45.1495606 L36.0867505,45.1495606 L36.0867505,43.225959 L43.0720096,43.225959 C46.2961151,43.225959 51.0921699,41.0698598 51.0921699,35.1296604 L51.0921699,35.0968159 C51.0921699,29.1563578 46.2958555,27 43.07175,27 Z M47.721408,35.1294018 C47.721408,39.8137516 43.2614949,39.8675442 43.07175,39.8675442 L36.0864909,39.8675442 L36.0864909,30.3581562 L43.07175,30.3581562 C43.2614949,30.3581562 47.721408,30.4119488 47.721408,35.0962986 L47.721408,35.1294018 Z" id="Shape" stroke="#F8F9FA"></path> </g> </g> </g> </svg> 