<?xml version="1.0" encoding="UTF-8"?> <svg xmlns="http://www.w3.org/2000/svg" xmlns:xlink="http://www.w3.org/1999/xlink" width="75px" height="77px" viewBox="0 0 75 77"> <title>Combined Shape 8</title> <g id="Logo&amp;ico" stroke="none" stroke-width="1" fill="none" fill-rule="evenodd"> <g id="CRM---возможности-Copy-3" transform="translate(-249.000000, -2238.000000)" fill="#16192C" fill-rule="nonzero"> <g id="Combined-Shape-8" transform="translate(249.000000, 2238.000000)"> <path d="M37.9331025,65.6363388 C38.4290632,66.13409 38.4290632,66.9409785 37.9331025,67.4387297 L29.1050383,76.298482 C28.8572393,76.5471756 28.5321619,76.6717044 28.207266,76.6717044 C27.8821886,76.6717044 27.5572926,76.5471756 27.3093122,76.298482 C26.8133515,75.8007309 26.8133515,74.9938424 27.3093122,74.4960912 L36.1373764,65.6363388 C36.6333371,65.1389517 37.4375046,65.1391338 37.9331025,65.6363388 Z M34.0847812,59.1994367 C34.5807419,59.6971878 34.5807419,60.5040763 34.0847812,61.0018275 L20.1258639,75.011138 C19.878065,75.2600136 19.553169,75.3843604 19.2280916,75.3843604 C18.9030142,75.3843604 18.5781182,75.2598316 18.3301379,75.011138 C17.8341772,74.5133869 17.8341772,73.7064983 18.3301379,73.2087472 L32.2890552,59.1994367 C32.7848345,58.7020496 33.5890019,58.7020496 34.0847812,59.1994367 Z M26.3885015,56.6249307 C26.8844622,57.1226819 26.8844622,57.9295704 26.3885015,58.4273215 L17.5604373,67.2870739 C17.3126384,67.5357675 16.987561,67.6602963 16.662665,67.6602963 C16.3375876,67.6602963 16.0126917,67.5357675 15.7647113,67.2870739 C15.2687506,66.7893228 15.2687506,65.9824343 15.7647113,65.4846831 L24.5927755,56.6249307 C25.0887362,56.1275436 25.8929036,56.1275436 26.3885015,56.6249307 Z M65.3558834,-2.0783375e-13 C67.7308349,-2.0783375e-13 70.120843,0.198262994 72.4593322,0.589509252 C72.6760971,0.625754884 72.873852,0.71634482 73.0383661,0.846972711 C73.1161378,0.908775769 73.1867513,0.979807442 73.2483562,1.05833516 C73.3210054,1.1506097 73.3813952,1.25406033 73.4266218,1.36548519 C73.4614828,1.45176163 73.4874565,1.54297831 73.5031354,1.6378089 C73.5425179,1.87595088 73.5798895,2.11443455 73.6152523,2.35322583 L73.5033168,1.63799096 C74.3408627,6.70525811 74.2806363,11.8431644 73.3244517,16.908611 L73.3028924,17.0016497 C72.9986125,18.5952342 72.6058086,20.1714318 72.1251846,21.7199022 C70.0533605,28.3958487 66.3363763,34.555838 61.3760437,39.534078 C59.5160427,41.400727 57.4903263,43.0915859 55.3325029,44.5864761 L50.6593742,63.9781392 C50.5643181,64.3730267 50.2871316,64.6987314 49.9136191,64.8549386 C49.7563411,64.9204801 49.5903558,64.9527047 49.4249146,64.9527047 C49.1961632,64.9527047 48.9686815,64.8908044 48.767685,64.7686424 L35.6720731,56.8184601 C35.3381069,56.6158277 35.1157046,56.2702784 35.0687208,55.881581 C35.021737,55.4927015 35.1556137,55.1040041 35.4315304,54.8269093 L40.985,49.253 L36.563,44.815 L33.6731737,47.7152939 C32.7246081,48.6669199 31.4593097,49.1910697 30.1102022,49.1910697 C28.7610948,49.1910697 27.4957964,48.6669199 26.5474121,47.7151119 C24.5827982,45.7434055 24.5827982,42.5353319 26.5474121,40.5636255 L29.437,37.663 L25.015,33.225 L19.4613781,38.7992851 C19.2213796,39.0394218 18.8977535,39.1723254 18.563243,39.1723254 C18.5124497,39.1723254 18.4612935,39.1692304 18.4103188,39.1630404 C18.0228381,39.1158869 17.6787133,38.8926817 17.4768097,38.5575099 L9.55540669,25.4146214 C9.34588416,25.0668874 9.31395692,24.6399574 9.46978363,24.2649145 C9.62542894,23.8898715 9.94996211,23.6118664 10.3434291,23.5162851 L29.658941,18.8287029 C31.1487123,16.664261 32.835236,14.6302784 34.6984736,12.7603811 C42.5019313,4.92875204 52.7409666,0.446070244 63.6859692,0.0325205681 C63.7337426,0.030665216 63.7810902,0.0289018451 63.8284378,0.0272165989 C64.0061602,0.0212284147 64.1845745,0.0161492258 64.3631663,0.012151787 C64.4671395,0.00910027402 64.5705173,0.00708047067 64.6738834,0.00543434579 C64.8066242,0.00425444335 64.9398986,0.00281157456 65.073266,0.00197116822 C65.1679378,0.00030995338 65.2619193,-2.0783375e-13 65.3558834,-2.0783375e-13 Z M52.2464847,46.5466528 C50.5505135,47.5214267 48.7895256,48.38063 46.9733748,49.1196313 C46.8646528,49.1630309 46.7566893,49.2065676 46.6485486,49.2496684 C46.5581818,49.2862187 46.4674043,49.3219599 46.376493,49.3574026 C46.1997436,49.4260964 46.0223841,49.494052 45.8445724,49.5608359 C45.7978391,49.5783198 45.7510963,49.5957543 45.7043194,49.6131106 C45.2323884,49.7886177 44.7573205,49.9557487 44.2793377,50.1144916 C44.20717,50.1380807 44.134257,50.1621038 44.0612679,50.1859404 C43.916696,50.2334193 43.7724327,50.279626 43.6279156,50.3250683 C43.5704228,50.3431103 43.5125853,50.361209 43.4547015,50.3791912 L38.3728277,55.4794112 L48.598253,61.6871002 L52.2464847,46.5466528 Z M21.2576484,48.9006845 C21.7536091,49.3984357 21.7536091,50.2053242 21.2576484,50.7030754 L12.4295842,59.5628278 C12.1817853,59.8115213 11.8567079,59.9360501 11.5318119,59.9360501 C11.2067345,59.9360501 10.8818385,59.8115213 10.6338582,59.5628278 C10.1378975,59.0650766 10.1378975,58.2581881 10.6338582,57.7604369 L19.4619224,48.9006845 C19.9578831,48.4032975 20.7620505,48.4034795 21.2576484,48.9006845 Z M14.8439006,45.0384704 C15.3398613,45.5362216 15.3398613,46.3431101 14.8439006,46.8408613 L3.45040984,58.2754838 C3.20261089,58.5243594 2.87771491,58.6487061 2.55263752,58.6487061 C2.22756014,58.6487061 1.90266416,58.5241773 1.65468381,58.2754838 C1.15872311,57.7777326 1.15872311,56.9708441 1.65468381,56.4730929 L13.0481746,45.0384704 C13.5439538,44.5410834 14.3481213,44.5410834 14.8439006,45.0384704 Z M10.9957607,38.6017504 C11.4917214,39.0995015 11.4917214,39.90639 10.9957607,40.4041412 L2.16769656,49.2638936 C1.91989761,49.5127692 1.59482023,49.637116 1.26992424,49.637116 C0.944846857,49.637116 0.619950875,49.5125871 0.371970525,49.2638936 C-0.123990175,48.7661424 -0.123990175,47.9592539 0.371970525,47.4615028 L9.20003471,38.6017504 C9.69599541,38.1043633 10.5001628,38.1045454 10.9957607,38.6017504 Z M56.8348909,3.44161434 L56.3747737,3.54117395 C48.9073449,5.21939339 42.0463511,8.9907587 36.4943811,14.5627719 C35.0775885,15.9846793 33.7693466,17.5072245 32.5795855,19.1137205 C32.6588153,19.1633031 32.7333996,19.222674 32.8020679,19.2915901 L35.3674945,21.8662782 C35.8634552,22.3638473 35.8634552,23.1709179 35.3674945,23.668487 C35.1196955,23.9171805 34.7947996,24.0417093 34.4697222,24.0417093 C34.1446448,24.0417093 33.8197488,23.9171805 33.5717685,23.668487 L31.1239456,21.2118493 C30.0233437,22.9078469 29.0485478,24.682622 28.2098658,26.5188526 C27.941464,27.1074726 27.6871058,27.7022862 27.4468416,28.3030831 C27.4335644,28.3332045 27.4214501,28.3635627 27.4093724,28.3939354 L27.4468416,28.3030831 C27.0835899,29.2114186 26.7525541,30.1334309 26.4543963,31.0677228 L31.2327351,35.861388 L31.422,35.671 L32.9814773,34.1063327 C33.9300429,33.1543426 35.1953413,32.6301928 36.5442674,32.6301928 C37.8933748,32.6301928 39.1588546,33.1545247 40.1074203,34.1063327 C42.0718528,36.078039 42.0718528,39.2861127 40.1074203,41.2578191 L38.3586781,43.0126924 L43.1366989,47.8079623 L43.8011076,47.5866801 C44.2435253,47.4356421 44.6828804,47.2772754 45.1190227,47.1116524 C45.1697548,47.0927197 45.220792,47.0731829 45.2717887,47.0535435 L45.1190227,47.1116524 C45.3304236,47.0313739 45.5410696,46.9493906 45.7509438,46.8657108 L45.2717887,47.0535435 C45.5136962,46.9603822 45.7546942,46.8649114 45.994746,46.7671531 L45.7509438,46.8657108 C45.9437458,46.7888379 46.1358964,46.7105332 46.3273824,46.6308032 L45.994746,46.7671531 C46.2289645,46.6717703 46.4622823,46.5742097 46.6946653,46.4744919 L46.3273824,46.6308032 C46.5124021,46.5537656 46.6968014,46.4753972 46.8805682,46.3957039 L46.6946653,46.4744919 C48.3006898,45.7853309 49.8620669,44.9931283 51.3675655,44.1046158 L47.681796,40.4043233 C47.1860167,39.9065721 47.1860167,39.0996836 47.681796,38.6019324 C48.1777567,38.1045454 48.9817427,38.1045454 49.4777034,38.6019324 L53.5704489,42.7086422 C55.7218828,41.2478095 57.7374733,39.5815123 59.5803176,37.7318692 C65.2198714,32.0720691 69.0092132,24.940271 70.6388846,17.3027928 C67.9352481,15.6726183 65.3469616,13.6222351 62.932134,11.1988552 C60.5432311,8.80132816 58.4490323,6.13505847 56.8348909,3.44161434 Z M36.5444488,35.1790283 C35.9696029,35.1790283 35.426477,35.3693662 34.9877259,35.7200036 C34.9146008,35.7783948 34.8443749,35.8413094 34.7773847,35.9085415 L28.3431381,42.3660164 C27.368813,43.3436769 27.368813,44.9348785 28.3431381,45.912539 C28.8118881,46.3831633 29.4393673,46.6422342 30.1102022,46.6422342 C30.7810371,46.6422342 31.4083349,46.3831633 31.8772663,45.912539 L35.823,41.952 L38.3115128,39.4554282 C38.3736643,39.3930407 38.4318512,39.3281589 38.4860735,39.2611011 C39.2818917,38.2773531 39.2238299,36.82397 38.3115128,35.9083594 C38.2445226,35.8411534 38.1742968,35.7782611 38.1011716,35.7198215 C37.6625983,35.3693662 37.1194501,35.1790283 36.5444488,35.1790283 Z M27.7103982,21.9232628 L12.6256828,25.5844831 L18.8108606,35.8468232 L23.8921902,30.7471495 L23.912,30.684 L23.9885058,30.4350796 C24.4237954,29.0511873 24.9293214,27.6902455 25.501697,26.3579377 C25.6854021,25.930132 25.87589,25.5049411 26.0731478,25.0829158 C26.1016005,25.0238408 26.1295286,24.9645466 26.1575908,24.9053152 C26.2242211,24.7624275 26.2925117,24.6200321 26.3615767,24.4780081 C26.3847327,24.4331721 26.406903,24.3878618 26.429152,24.3425895 C26.829803,23.5230025 27.2574373,22.7163992 27.7103982,21.9232628 Z M50.9530686,13.3040113 C53.5990388,13.3040113 56.082289,14.3337409 57.9454977,16.2036759 C61.798354,20.0706235 61.79654,26.3647909 57.9411439,30.2344694 C56.1566121,32.0252691 53.8026323,33.0450907 51.2821888,33.1269668 L50.9525243,33.1323134 L50.9525243,33.1323134 C48.3085495,33.1323134 45.8271134,32.10313 43.9649932,30.2344694 C40.1094157,26.3649729 40.1072389,20.0706235 43.9604581,16.2036759 C45.8236667,14.3337409 48.3069169,13.3040113 50.9530686,13.3040113 Z M50.9530686,15.8528469 C48.9851894,15.8528469 47.1397584,16.6174975 45.7565469,18.0058847 C42.8936165,20.8791506 42.8956119,25.5562638 45.761082,28.4320786 C47.1432051,29.8193733 48.9870034,30.5832958 50.9525243,30.5834778 C52.9185895,30.5834778 54.7627506,29.8193733 56.1452365,28.4320786 C59.0105252,25.5562638 59.0125206,20.8791506 56.1494088,18.0058847 C54.7660159,16.6174975 52.9207663,15.8528469 50.9530686,15.8528469 Z M50.9530686,20.5791162 C51.6563749,20.5791162 52.3168698,20.8532981 52.8126491,21.3512313 C53.3086098,21.8488004 53.5818054,22.5118618 53.5814429,23.2175251 C53.5808984,23.9228243 53.3077028,24.5853395 52.8117421,25.0829086 C52.3657039,25.5308847 51.7863932,25.7976222 51.1625456,25.8464899 L50.9530686,25.8546596 L50.9530686,25.8546596 C50.250125,25.8546596 49.589993,25.5806598 49.0942137,25.0830907 C48.0689138,24.0539073 48.068551,22.3798685 49.0933066,21.3512313 C49.5892673,20.8532981 50.2497622,20.5791162 50.9530686,20.5791162 Z M65.2977137,2.55049015 L64.6376328,2.55624385 C64.6172755,2.55659347 64.5969206,2.55695801 64.5765682,2.55733748 L64.6376064,2.55678717 C62.9294173,2.58688485 61.2225613,2.72413233 59.532064,2.96848312 C60.9604453,5.19871423 62.7331329,7.39435401 64.7282228,9.39646433 C66.7162839,11.3917026 68.8991966,13.1674403 71.1201691,14.6019923 C71.6139974,11.1992388 71.6820598,7.72090579 71.2997904,4.24876708 C71.2878875,4.1336016 71.2747429,4.01928341 71.2611164,3.90499322 L71.2997904,4.24876708 C71.2771429,4.04306042 71.2529147,3.8373755 71.2271005,3.63172938 L71.2611164,3.90499322 C71.2236533,3.59077848 71.1825474,3.27677532 71.1377983,2.96302133 L70.3237102,2.85433785 C70.3140513,2.85314858 70.304392,2.8519628 70.2947321,2.85078051 C70.0295822,2.81913969 69.7641877,2.78934435 69.4984445,2.76214991 L70.2947321,2.85078051 C70.0227914,2.81749708 69.7504557,2.78698043 69.4777875,2.75923036 L69.4984445,2.76214991 C69.2380024,2.73549796 68.9772254,2.71134416 68.7162113,2.68969664 L69.4777875,2.75923036 C69.1848606,2.7294185 68.8915499,2.70279961 68.5979325,2.67937344 L68.7162113,2.68969664 C68.4494658,2.66757378 68.1824727,2.64806846 67.9153364,2.63118934 L68.5979325,2.67937344 C68.3241012,2.65752588 68.0500032,2.63845524 67.7757012,2.62216134 L67.9153364,2.63118934 C67.6388732,2.61372089 67.3622566,2.59906523 67.0856023,2.58723194 L67.7757012,2.62216134 C67.5071495,2.606209 67.2384023,2.5929182 66.9695184,2.58228874 L67.0856023,2.58723194 C66.8473064,2.57703934 66.6089825,2.56894072 66.3707047,2.56294222 L66.9695184,2.58228874 C66.6863881,2.5710961 66.4031063,2.56285429 66.1197415,2.5575631 L66.3707047,2.56294222 C66.0601454,2.55512407 65.7496643,2.55087343 65.4394252,2.55020386 L66.1197415,2.5575631 C65.8457891,2.55244766 65.5717592,2.55009007 65.2977137,2.55049015 Z" id="Combined-Shape"></path> </g> </g> </g> </svg> 